<svg width="24" height="25" viewBox="0 0 24 25" fill="none" xmlns="http://www.w3.org/2000/svg">
<path d="M16.755 2.5H7.24502C6.08614 2.5 5.50671 2.5 5.03939 2.66261C4.15322 2.97096 3.45748 3.68719 3.15795 4.59946C3 5.08055 3 5.67705 3 6.87006V20.8742C3 21.7324 3.985 22.1878 4.6081 21.6176C4.97417 21.2826 5.52583 21.2826 5.8919 21.6176L6.375 22.0597C7.01659 22.6468 7.98341 22.6468 8.625 22.0597C9.26659 21.4726 10.2334 21.4726 10.875 22.0597C11.5166 22.6468 12.4834 22.6468 13.125 22.0597C13.7666 21.4726 14.7334 21.4726 15.375 22.0597C16.0166 22.6468 16.9834 22.6468 17.625 22.0597L18.1081 21.6176C18.4742 21.2826 19.0258 21.2826 19.3919 21.6176C20.015 22.1878 21 21.7324 21 20.8742V6.87006C21 5.67705 21 5.08055 20.842 4.59946C20.5425 3.68719 19.8468 2.97096 18.9606 2.66261C18.4933 2.5 17.9139 2.5 16.755 2.5Z" stroke="#6B788E" stroke-width="1.2"/>
<path d="M10.5 11.5L17 11.5" stroke="#6B788E" stroke-width="1.2" stroke-linecap="round"/>
<path d="M7 11.5H7.5" stroke="#6B788E" stroke-width="1.2" stroke-linecap="round"/>
<path d="M7 8H7.5" stroke="#6B788E" stroke-width="1.2" stroke-linecap="round"/>
<path d="M7 15H7.5" stroke="#6B788E" stroke-width="1.2" stroke-linecap="round"/>
<path d="M10.5 8H17" stroke="#6B788E" stroke-width="1.2" stroke-linecap="round"/>
<path d="M10.5 15H17" stroke="#6B788E" stroke-width="1.2" stroke-linecap="round"/>
</svg>
