<svg width="24" height="25" viewBox="0 0 24 25" fill="none" xmlns="http://www.w3.org/2000/svg">
<path d="M10 22.5C14.4183 22.5 18 18.9183 18 14.5C18 10.0817 14.4183 6.5 10 6.5C5.58172 6.5 2 10.0817 2 14.5C2 15.7355 2.28008 16.9056 2.7802 17.9502C2.95209 18.3093 3.01245 18.7161 2.90955 19.1006L2.58151 20.3267C2.32295 21.293 3.20701 22.177 4.17335 21.9185L5.39939 21.5904C5.78393 21.4876 6.19071 21.5479 6.54976 21.7198C7.5944 22.2199 8.76449 22.5 10 22.5Z" stroke="#6B788E" stroke-width="1.2"/>
<path d="M18 15.0018C18.0665 14.9741 18.1324 14.9453 18.1977 14.9155C18.5598 14.7501 18.9661 14.6882 19.3506 14.7911L19.8267 14.9185C20.793 15.177 21.677 14.293 21.4185 13.3267L21.2911 12.8506C21.1882 12.4661 21.2501 12.0598 21.4155 11.6977C21.7908 10.876 22 9.96242 22 9C22 5.41015 19.0899 2.5 15.5 2.5C12.7977 2.5 10.4806 4.14899 9.5 6.4956" stroke="#6B788E" stroke-width="1.2"/>
<path d="M7.5 14.5C7.5 15.0523 7.05228 15.5 6.5 15.5C5.94772 15.5 5.5 15.0523 5.5 14.5C5.5 13.9477 5.94772 13.5 6.5 13.5C7.05228 13.5 7.5 13.9477 7.5 14.5Z" fill="#6B788E"/>
<path d="M11 14.5C11 15.0523 10.5523 15.5 10 15.5C9.44772 15.5 9 15.0523 9 14.5C9 13.9477 9.44772 13.5 10 13.5C10.5523 13.5 11 13.9477 11 14.5Z" fill="#6B788E"/>
<path d="M14.5 14.5C14.5 15.0523 14.0523 15.5 13.5 15.5C12.9477 15.5 12.5 15.0523 12.5 14.5C12.5 13.9477 12.9477 13.5 13.5 13.5C14.0523 13.5 14.5 13.9477 14.5 14.5Z" fill="#6B788E"/>
</svg>
