<svg width="24" height="25" viewBox="0 0 24 25" fill="none" xmlns="http://www.w3.org/2000/svg">
<path d="M20.3116 13.1473L20.8293 11.2154C21.4335 8.96034 21.7356 7.8328 21.5081 6.85703C21.3285 6.08657 20.9244 5.38668 20.347 4.84587C19.6157 4.16095 18.4881 3.85883 16.2331 3.25458C13.978 2.65033 12.8504 2.34821 11.8747 2.57573C11.1042 2.75537 10.4043 3.15945 9.86351 3.73687C9.27709 4.36298 8.97128 5.27957 8.51621 6.94561C8.43979 7.2254 8.35915 7.52633 8.27227 7.85057L8.27222 7.85077L7.75458 9.78263C7.15033 12.0377 6.84821 13.1652 7.07573 14.141C7.25537 14.9115 7.65945 15.6114 8.23687 16.1522C8.96815 16.8371 10.0957 17.1392 12.3508 17.7435L12.3508 17.7435C14.3834 18.2881 15.4999 18.5873 16.415 18.4744C16.5152 18.4621 16.6129 18.4448 16.7092 18.4223C17.4796 18.2427 18.1795 17.8386 18.7203 17.2612C19.4052 16.5299 19.7074 15.4024 20.3116 13.1473Z" stroke="#6B788E" stroke-width="1.2"/>
<path d="M16.415 18.4741C16.2065 19.1126 15.8399 19.6902 15.347 20.1519C14.6157 20.8368 13.4881 21.1389 11.2331 21.7432C8.97798 22.3474 7.85044 22.6495 6.87466 22.422C6.10421 22.2424 5.40432 21.8383 4.86351 21.2609C4.17859 20.5296 3.87647 19.4021 3.27222 17.147L2.75458 15.2151C2.15033 12.96 1.84821 11.8325 2.07573 10.8567C2.25537 10.0863 2.65945 9.38638 3.23687 8.84557C3.96815 8.16065 5.09569 7.85853 7.35077 7.25428C7.77741 7.13996 8.16368 7.03646 8.51621 6.94531" stroke="#6B788E" stroke-width="1.2"/>
<path d="M11.9321 9.92044C11.6121 9.83468 11.2831 10.0246 11.1973 10.3447C11.1115 10.6648 11.3015 10.9938 11.6216 11.0796L11.9321 9.92044ZM16.4512 12.3737C16.7713 12.4594 17.1003 12.2695 17.186 11.9494C17.2718 11.6293 17.0819 11.3003 16.7618 11.2145L16.4512 12.3737ZM11.6216 11.0796L16.4512 12.3737L16.7618 11.2145L11.9321 9.92044L11.6216 11.0796Z" fill="#6B788E"/>
<path d="M11.1553 12.8181C10.8352 12.7324 10.5062 12.9223 10.4204 13.2424C10.3347 13.5625 10.5246 13.8915 10.8447 13.9773L11.1553 12.8181ZM13.7425 14.7537C14.0626 14.8395 14.3916 14.6495 14.4773 14.3295C14.5631 14.0094 14.3731 13.6804 14.0531 13.5946L13.7425 14.7537ZM10.8447 13.9773L13.7425 14.7537L14.0531 13.5946L11.1553 12.8181L10.8447 13.9773Z" fill="#6B788E"/>
</svg>
