<svg width="20" height="20" viewBox="0 0 20 20" fill="none" xmlns="http://www.w3.org/2000/svg">
<path d="M2.5 8.33335C2.5 5.19066 2.5 3.61931 3.47631 2.643C4.45262 1.66669 6.02397 1.66669 9.16667 1.66669H10.8333C13.976 1.66669 15.5474 1.66669 16.5237 2.643C17.5 3.61931 17.5 5.19066 17.5 8.33335V11.6667C17.5 14.8094 17.5 16.3807 16.5237 17.357C15.5474 18.3334 13.976 18.3334 10.8333 18.3334H9.16667C6.02397 18.3334 4.45262 18.3334 3.47631 17.357C2.5 16.3807 2.5 14.8094 2.5 11.6667V8.33335Z" stroke="#6B788E" stroke-width="1.2"/>
<path d="M6.66669 8.33331H13.3334" stroke="#6B788E" stroke-width="1.2" stroke-linecap="round"/>
<path d="M6.66669 11.6667H10.8334" stroke="#6B788E" stroke-width="1.2" stroke-linecap="round"/>
</svg>
